<?xml version="1.0" encoding="UTF-8"?>
<!-- Generator: Adobe Illustrator 15.0.0, SVG Export Plug-In . SVG Version: 6.00 Build 0)  -->
<!DOCTYPE svg PUBLIC "-//W3C//DTD SVG 1.0//EN" "http://www.w3.org/TR/2001/REC-SVG-20010904/DTD/svg10.dtd">
<svg 
	version="1.0" 
	id="Ebene_1" 
	xmlns="http://www.w3.org/2000/svg" 
	xmlns:xlink="http://www.w3.org/1999/xlink" 
	x="0px" 
	y="0px" 
	width="32px" 
	height="32px" 
	viewBox="0 0 32 32" 
	enable-background="new 0 0 32 32" 
	xml:space="preserve">
<g>
	<path fill-rule="evenodd" clip-rule="evenodd" fill="#FFFFFF" d="M16.2,0C11.817,2.817,5.994,4.194,1.8,7.2   c4.463,3.291,8.692-3.875,14.4-4c6.025-0.131,9.246,5.614,14.4,4.8C30.32,4.129,20.594,3.184,17,0c5.6,0,11.199,0,16.8,0   c0,10.667,0,21.334,0,32C22.866,32,11.933,32,1,32C1,21.334,1,10.667,1,0C6.066,0,11.133,0,16.2,0z M15.4,10.4   c2.036-0.098,3.102-1.165,3.2-3.2c-0.928-0.671-2.145-1.055-4-0.8C14.345,8.255,14.729,9.471,15.4,10.4z M11.4,12   c0.51,2.956-1.036,7.969,0.8,9.6c1.835-0.832-0.379-5.712,1.6-6.4c0,5.333,0,10.667,0,16c2.989-0.072,2.28-0.896,4.8,0   c0.524-5.076-1.055-12.254,0.8-16c1.835,0.832-0.379,5.712,1.601,6.4c1.626-2.617,0.934-8.603-0.801-10.4   C17.26,11.46,13.117,10.518,11.4,12z"/>
	<path fill-rule="evenodd" clip-rule="evenodd" d="M16.2,0c0.267,0,0.533,0,0.8,0c3.594,3.184,13.32,4.129,13.6,8   c-5.154,0.814-8.375-4.931-14.4-4.8c-5.708,0.125-9.937,7.291-14.4,4C5.994,4.194,11.817,2.817,16.2,0z"/>
	<path fill-rule="evenodd" clip-rule="evenodd" d="M14.6,6.4c1.855-0.255,3.072,0.128,4,0.8c-0.098,2.036-1.164,3.103-3.2,3.2   C14.729,9.471,14.345,8.255,14.6,6.4z"/>
	<path fill-rule="evenodd" clip-rule="evenodd" d="M20.199,11.2c1.734,1.797,2.427,7.783,0.801,10.4   c-1.979-0.688,0.234-5.568-1.601-6.4c-1.854,3.746-0.275,10.923-0.8,16c-2.52-0.896-1.811-0.072-4.8,0c0-5.332,0-10.666,0-16   c-1.979,0.688,0.235,5.568-1.6,6.4c-1.836-1.631-0.29-6.644-0.8-9.6C13.117,10.518,17.26,11.46,20.199,11.2z M17,28.799   c-0.164-1.512,0.539-7.902-0.8-5.6C16.363,24.711,15.66,31.104,17,28.799z"/>
	<path fill-rule="evenodd" clip-rule="evenodd" fill="#FFFFFF" d="M16.2,23.199c1.339-2.303,0.637,4.088,0.8,5.6   C15.66,31.104,16.363,24.711,16.2,23.199z"/>
</g>
</svg>