<?xml version="1.0" encoding="UTF-8" standalone="no"?>
<!DOCTYPE svg PUBLIC "-//W3C//DTD SVG 20010904//EN"
              "http://www.w3.org/TR/2001/REC-SVG-20010904/DTD/svg10.dtd">

<svg xmlns="http://www.w3.org/2000/svg"
     width="14px" height="14px"
     viewBox="0 0 640 565">
  <path id="Sélection"
        fill="#FCFCF0" stroke="#000000" stroke-width="1"
        d="M 123.27,209.00
           C 123.27,209.00 92.63,247.00 92.63,247.00
             92.63,247.00 81.42,262.00 81.42,262.00
             79.83,264.15 78.05,267.24 74.96,267.04
             71.61,266.81 64.68,260.31 62.00,258.00
             62.00,258.00 34.00,234.42 34.00,234.42
             34.00,234.42 9.00,213.59 9.00,213.59
             6.84,211.79 1.26,207.88 1.18,204.96
             1.11,202.11 8.02,194.50 10.00,192.00
             10.00,192.00 35.85,160.00 35.85,160.00
             69.49,121.77 114.08,74.13 152.00,40.72
             152.00,40.72 186.00,10.59 186.00,10.59
             188.80,8.24 196.64,0.82 200.00,0.74
             202.80,0.68 204.87,3.13 206.58,5.02
             206.58,5.02 217.73,18.00 217.73,18.00
             217.73,18.00 265.00,73.00 265.00,73.00
             265.00,73.00 247.00,88.58 247.00,88.58
             247.00,88.58 204.00,125.42 204.00,125.42
             204.00,125.42 189.00,138.83 189.00,138.83
             187.16,140.49 182.82,143.70 182.20,146.01
             181.33,149.23 185.88,152.91 188.00,154.83
             188.00,154.83 209.00,174.99 209.00,174.99
             209.00,174.99 236.00,200.04 236.00,200.04
             236.00,200.04 284.00,246.09 284.00,246.09
             284.00,246.09 302.00,263.91 302.00,263.91
             303.78,265.56 307.44,269.11 310.00,268.99
             312.66,268.88 316.17,264.82 318.00,263.00
             318.00,263.00 336.00,245.00 336.00,245.00
             336.00,245.00 359.00,222.04 359.00,222.04
             359.00,222.04 369.00,212.99 369.00,212.99
             369.00,212.99 407.00,175.83 407.00,175.83
             407.00,175.83 427.00,156.00 427.00,156.00
             429.24,153.74 433.24,150.54 432.60,147.00
             432.23,144.94 429.52,141.66 428.19,140.00
             423.88,134.61 418.87,129.87 414.00,125.00
             414.00,125.00 380.00,93.17 380.00,93.17
             372.89,86.74 364.88,80.36 360.00,72.00
             360.00,72.00 410.00,22.00 410.00,22.00
             410.00,22.00 422.00,10.06 422.00,10.06
             423.92,8.30 426.15,6.14 429.00,6.74
             431.41,7.26 434.27,10.30 436.00,12.00
             436.00,12.00 449.00,25.00 449.00,25.00
             449.00,25.00 499.00,74.25 499.00,74.25
             500.07,75.10 501.67,76.48 503.00,76.83
             507.76,78.09 511.77,70.18 516.00,70.20
             518.85,70.21 523.03,75.04 525.00,77.00
             525.00,77.00 545.00,96.00 545.00,96.00
             546.93,97.92 550.60,101.15 550.75,104.00
             550.97,107.94 543.69,114.31 541.00,117.00
             541.00,117.00 554.00,129.00 554.00,129.00
             554.00,129.00 572.91,151.00 572.91,151.00
             572.91,151.00 592.31,187.00 592.31,187.00
             592.31,187.00 624.78,248.00 624.78,248.00
             624.78,248.00 640.00,277.00 640.00,277.00
             640.00,277.00 617.00,267.30 617.00,267.30
             617.00,267.30 582.00,251.31 582.00,251.31
             582.00,251.31 529.00,227.31 529.00,227.31
             529.00,227.31 503.00,215.30 503.00,215.30
             503.00,215.30 489.00,202.00 489.00,202.00
             489.00,202.00 472.00,186.00 472.00,186.00
             472.00,186.00 448.17,211.00 448.17,211.00
             448.17,211.00 425.09,235.00 425.09,235.00
             425.09,235.00 402.04,259.00 402.04,259.00
             402.04,259.00 388.00,274.00 388.00,274.00
             388.00,274.00 366.00,297.00 366.00,297.00
             361.23,301.77 354.87,306.92 352.00,313.00
             358.09,315.88 363.21,322.23 368.00,327.00
             368.00,327.00 380.00,338.04 380.00,338.04
             380.00,338.04 394.00,351.83 394.00,351.83
             394.00,351.83 415.00,371.91 415.00,371.91
             415.00,371.91 488.00,441.09 488.00,441.09
             488.00,441.09 503.00,455.83 503.00,455.83
             503.00,455.83 526.00,477.04 526.00,477.04
             526.00,477.04 542.00,492.72 542.00,492.72
             542.00,492.72 559.00,508.99 559.00,508.99
             560.67,510.62 565.03,514.35 565.94,516.17
             568.12,520.54 562.73,529.39 560.23,533.00
             553.32,542.98 541.57,554.10 531.00,560.13
             527.91,561.89 521.61,565.22 518.04,564.59
             514.64,564.00 507.73,555.73 505.00,553.00
             505.00,553.00 475.00,523.00 475.00,523.00
             475.00,523.00 462.99,510.00 462.99,510.00
             462.99,510.00 426.04,473.00 426.04,473.00
             426.04,473.00 417.96,464.00 417.96,464.00
             417.96,464.00 376.01,422.00 376.01,422.00
             376.01,422.00 359.00,404.00 359.00,404.00
             359.00,404.00 324.00,369.09 324.00,369.09
             321.70,366.95 312.52,358.04 310.01,358.04
             307.28,358.04 299.31,367.68 297.00,370.00
             297.00,370.00 263.00,405.00 263.00,405.00
             263.00,405.00 245.96,423.00 245.96,423.00
             245.96,423.00 230.04,439.00 230.04,439.00
             230.04,439.00 197.96,473.00 197.96,473.00
             197.96,473.00 183.04,488.00 183.04,488.00
             183.04,488.00 173.99,498.00 173.99,498.00
             173.99,498.00 158.17,514.00 158.17,514.00
             158.17,514.00 137.04,536.00 137.04,536.00
             137.04,536.00 125.00,549.00 125.00,549.00
             122.07,551.93 114.51,560.27 111.00,561.36
             106.94,562.62 100.27,558.49 97.00,556.23
             88.33,550.23 74.17,536.30 69.26,527.00
             66.87,522.46 61.98,515.87 65.36,511.00
             65.36,511.00 78.00,498.00 78.00,498.00
             78.00,498.00 103.00,473.83 103.00,473.83
             103.00,473.83 127.00,450.00 127.00,450.00
             127.00,450.00 150.00,427.96 150.00,427.96
             150.00,427.96 201.00,377.00 201.00,377.00
             201.00,377.00 224.00,355.00 224.00,355.00
             224.00,355.00 268.00,312.00 268.00,312.00
             268.00,312.00 248.00,292.00 248.00,292.00
             248.00,292.00 209.91,253.00 209.91,253.00
             209.91,253.00 168.00,211.00 168.00,211.00
             168.00,211.00 143.00,185.00 143.00,185.00
             138.65,191.85 128.93,202.37 123.27,209.00 Z" />
</svg>
